<svg width="32" height="32" viewBox="0 0 32 32" fill="none" xmlns="http://www.w3.org/2000/svg">
<g clip-path="url(#clip0_393_35)">
<path fill-rule="evenodd" clip-rule="evenodd" d="M5.33329 16C5.33348 13.9472 5.92598 11.9382 7.03968 10.2138C8.15338 8.48945 9.74097 7.12308 11.612 6.27864C13.483 5.4342 15.5579 5.14756 17.5877 5.45312C19.6176 5.75868 21.5162 6.64346 23.0557 8.00128C24.5952 9.35911 25.7101 11.1323 26.2669 13.1081C26.8236 15.0839 26.7983 17.1784 26.1942 19.1402C25.5901 21.102 24.4327 22.8478 22.861 24.1682C21.2893 25.4886 19.3699 26.3274 17.3333 26.584V18.6666H20C20.3536 18.6666 20.6927 18.5261 20.9428 18.2761C21.1928 18.0261 21.3333 17.6869 21.3333 17.3333C21.3333 16.9797 21.1928 16.6405 20.9428 16.3905C20.6927 16.1404 20.3536 16 20 16H17.3333V13.3333C17.3333 12.9797 17.4738 12.6405 17.7238 12.3905C17.9739 12.1404 18.313 12 18.6666 12H19.3333C19.6869 12 20.0261 11.8595 20.2761 11.6094C20.5261 11.3594 20.6666 11.0202 20.6666 10.6666C20.6666 10.313 20.5261 9.97386 20.2761 9.72382C20.0261 9.47377 19.6869 9.33329 19.3333 9.33329H18.6666C17.6058 9.33329 16.5883 9.75472 15.8382 10.5049C15.0881 11.255 14.6666 12.2724 14.6666 13.3333V16H12C11.6463 16 11.3072 16.1404 11.0571 16.3905C10.8071 16.6405 10.6666 16.9797 10.6666 17.3333C10.6666 17.6869 10.8071 18.0261 11.0571 18.2761C11.3072 18.5261 11.6463 18.6666 12 18.6666H14.6666V26.584C12.0889 26.2589 9.71838 25.0043 7.99996 23.0556C6.28154 21.1069 5.33334 18.5981 5.33329 16ZM16 29.3333C23.364 29.3333 29.3333 23.364 29.3333 16C29.3333 8.63596 23.364 2.66663 16 2.66663C8.63596 2.66663 2.66663 8.63596 2.66663 16C2.66663 23.364 8.63596 29.3333 16 29.3333Z" fill="#282828"/>
</g>
<defs>
<clipPath id="clip0_393_35">
<rect width="32" height="32" fill="white"/>
</clipPath>
</defs>
</svg>
