<svg  viewBox="0 0 22 26" fill="none" xmlns="http://www.w3.org/2000/svg">
<path d="M11 14.166C12.933 14.166 14.5 12.599 14.5 10.666C14.5 8.73302 12.933 7.16602 11 7.16602C9.067 7.16602 7.5 8.73302 7.5 10.666C7.5 12.599 9.067 14.166 11 14.166Z" stroke="#282828" stroke-width="2.5" stroke-linecap="round" stroke-linejoin="round"/>
<path d="M11 1.33301C8.52467 1.33301 6.1507 2.31634 4.40036 4.06668C2.65002 5.81702 1.66669 8.19099 1.66669 10.6663C1.66669 12.8737 2.13569 14.318 3.41669 15.9163L11 24.6663L18.5834 15.9163C19.8644 14.318 20.3334 12.8737 20.3334 10.6663C20.3334 8.19099 19.35 5.81702 17.5997 4.06668C15.8493 2.31634 13.4754 1.33301 11 1.33301Z" stroke="#282828" stroke-width="2.5" stroke-linecap="round" stroke-linejoin="round"/>
</svg>
