<svg width="28" height="28" viewBox="0 0 28 28" fill="none" xmlns="http://www.w3.org/2000/svg">
<path d="M7.09148 10.5L12.1956 14.4375C12.6785 14.8103 13.2785 15.0134 13.897 15.0134C14.5155 15.0134 15.1156 14.8103 15.5984 14.4375L20.7026 10.5M26.147 21V7.875C26.147 7.17881 25.8602 6.51113 25.3497 6.01884C24.8392 5.52656 24.1468 5.25 23.4248 5.25H4.36926C3.64728 5.25 2.95487 5.52656 2.44435 6.01884C1.93384 6.51113 1.64703 7.17881 1.64703 7.875V21C1.64703 21.6962 1.93384 22.3639 2.44435 22.8562C2.95487 23.3484 3.64728 23.625 4.36926 23.625H23.4248C24.1468 23.625 24.8392 23.3484 25.3497 22.8562C25.8602 22.3639 26.147 21.6962 26.147 21Z" stroke="#282828" stroke-width="2.2" stroke-linecap="round" stroke-linejoin="round"/>
</svg>
