<svg width="25" height="24" viewBox="0 0 25 24" fill="none" xmlns="http://www.w3.org/2000/svg">
<path d="M5.85218 21C5.56885 21 5.33118 20.904 5.13918 20.712C4.94718 20.52 4.85152 20.2827 4.85218 20C4.85218 19.7167 4.94818 19.479 5.14018 19.287C5.33218 19.095 5.56952 18.9993 5.85218 19H19.8522C20.1355 19 20.3732 19.096 20.5652 19.288C20.7572 19.48 20.8529 19.7173 20.8522 20C20.8522 20.2833 20.7562 20.521 20.5642 20.713C20.3722 20.905 20.1349 21.0007 19.8522 21H5.85218ZM8.85218 17C7.75218 17 6.81052 16.6083 6.02718 15.825C5.24385 15.0417 4.85218 14.1 4.85218 13V5C4.85218 4.45 5.04818 3.979 5.44018 3.587C5.83218 3.195 6.30285 2.99934 6.85218 3H20.8522C21.4022 3 21.8732 3.196 22.2652 3.588C22.6572 3.98 22.8529 4.45067 22.8522 5V8C22.8522 8.55 22.6562 9.021 22.2642 9.413C21.8722 9.805 21.4015 10.0007 20.8522 10H18.8522V13C18.8522 14.1 18.4605 15.0417 17.6772 15.825C16.8939 16.6083 15.9522 17 14.8522 17H8.85218ZM8.85218 15H14.8522C15.4022 15 15.8732 14.804 16.2652 14.412C16.6572 14.02 16.8529 13.5493 16.8522 13V5H6.85218V13C6.85218 13.55 7.04818 14.021 7.44018 14.413C7.83218 14.805 8.30285 15.0007 8.85218 15ZM18.8522 8H20.8522V5H18.8522V8Z" fill="#FFFEFC"/>
</svg>
