<svg width="25" height="24" viewBox="0 0 25 24" fill="none" xmlns="http://www.w3.org/2000/svg">
<path d="M12.0326 22C11.721 22 11.4595 21.8933 11.2483 21.68C11.0371 21.4667 10.9319 21.203 10.9326 20.8889V19.6111C10.1076 19.4259 9.3834 19.1019 8.76005 18.6389C8.1367 18.1759 7.63251 17.5278 7.2475 16.6944C7.11916 16.4352 7.11476 16.1619 7.2343 15.8744C7.35384 15.587 7.56908 15.3789 7.88002 15.25C8.1367 15.1389 8.40254 15.1437 8.67755 15.2644C8.95256 15.3852 9.1634 15.5841 9.31007 15.8611C9.62175 16.4167 10.0159 16.8378 10.4926 17.1244C10.9693 17.4111 11.5559 17.5548 12.2526 17.5556C13.0043 17.5556 13.6412 17.3841 14.1634 17.0411C14.6856 16.6981 14.947 16.1659 14.9477 15.4444C14.9477 14.7963 14.7461 14.2826 14.3427 13.9033C13.9394 13.5241 13.0043 13.0933 11.5376 12.6111C9.96092 12.1111 8.87922 11.5137 8.29254 10.8189C7.70585 10.1241 7.41251 9.27704 7.41251 8.27778C7.41251 7.07408 7.79752 6.13889 8.56754 5.47222C9.33757 4.80556 10.1259 4.42593 10.9326 4.33334V3.11111C10.9326 2.7963 11.0382 2.53223 11.2494 2.31889C11.4606 2.10556 11.7213 1.99926 12.0315 2C12.3432 2 12.6046 2.10667 12.8159 2.32C13.0271 2.53334 13.1323 2.79704 13.1316 3.11111V4.33334C13.8283 4.44445 14.4333 4.67148 14.9466 5.01445C15.46 5.35741 15.8817 5.77852 16.2117 6.27778C16.3767 6.51852 16.4089 6.78704 16.3085 7.08333C16.208 7.37963 16.0016 7.59259 15.6892 7.72222C15.4325 7.83333 15.1666 7.83815 14.8916 7.73667C14.6166 7.63519 14.3599 7.45445 14.1216 7.19445C13.8833 6.93519 13.6035 6.7363 13.2823 6.59778C12.9611 6.45926 12.5625 6.38963 12.0865 6.38889C11.2798 6.38889 10.6657 6.56963 10.244 6.93111C9.82232 7.29259 9.61185 7.74148 9.61258 8.27778C9.61258 8.88889 9.88759 9.37037 10.4376 9.72222C10.9876 10.0741 11.941 10.4444 13.2977 10.8333C14.5627 11.2037 15.5208 11.7919 16.1721 12.5978C16.8233 13.4037 17.1485 14.3341 17.1478 15.3889C17.1478 16.7037 16.7628 17.7037 15.9928 18.3889C15.2227 19.0741 14.2694 19.5 13.1327 19.6667V20.8889C13.1327 21.2037 13.0271 21.4678 12.8159 21.6811C12.6046 21.8944 12.3436 22.0007 12.0326 22Z" fill="#FFFEFC"/>
</svg>
