<svg width="25" height="24" viewBox="0 0 25 24" fill="none" xmlns="http://www.w3.org/2000/svg">
<path d="M12.8582 2C11.7902 2 11.0982 2.714 10.7282 3.3C10.3905 3.8337 10.1829 4.43932 10.1222 5.068C10.0722 5.916 10.2022 6.752 10.7282 7.384C11.2782 8.044 12.0722 8.26 12.8582 8.26C13.6642 8.26 14.4522 8.014 14.9942 7.36C15.5162 6.728 15.6582 5.898 15.6002 5.056C15.5312 4.43822 15.3234 3.84405 14.9922 3.318C14.6282 2.738 13.9382 2 12.8582 2ZM12.1182 5.184C12.1262 5.058 12.2182 4.688 12.4182 4.366C12.6242 4.042 12.7822 4 12.8582 4C12.9222 4 13.0842 4.04 13.2982 4.38C13.5042 4.712 13.5982 5.086 13.6042 5.196C13.6442 5.764 13.5242 6 13.4542 6.084C13.4042 6.144 13.2702 6.26 12.8582 6.26C12.4142 6.26 12.2982 6.144 12.2642 6.104C12.2082 6.036 12.0822 5.804 12.1182 5.184ZM20.8522 20V13C20.8522 12.2044 20.5361 11.4413 19.9735 10.8787C19.4109 10.3161 18.6478 10 17.8522 10H7.8522C7.05655 10 6.29349 10.3161 5.73088 10.8787C5.16827 11.4413 4.8522 12.2044 4.8522 13V20H3.8522C3.58698 20 3.33263 20.1054 3.14509 20.2929C2.95756 20.4804 2.8522 20.7348 2.8522 21C2.8522 21.2652 2.95756 21.5196 3.14509 21.7071C3.33263 21.8946 3.58698 22 3.8522 22H21.8522C22.1174 22 22.3718 21.8946 22.5593 21.7071C22.7468 21.5196 22.8522 21.2652 22.8522 21C22.8522 20.7348 22.7468 20.4804 22.5593 20.2929C22.3718 20.1054 22.1174 20 21.8522 20H20.8522ZM7.8522 12H17.8522C18.1174 12 18.3718 12.1054 18.5593 12.2929C18.7468 12.4804 18.8522 12.7348 18.8522 13V14.572L17.1182 15.924C17.0331 15.9902 16.929 16.0271 16.8212 16.0293C16.7134 16.0314 16.6079 15.9987 16.5202 15.936L14.3022 14.356C13.8788 14.0545 13.372 13.8925 12.8522 13.8925C12.3324 13.8925 11.8256 14.0545 11.4022 14.356L9.1822 15.936C9.09455 15.9987 8.98897 16.0314 8.88121 16.0293C8.77345 16.0271 8.66927 15.9902 8.5842 15.924L6.8522 14.572V13C6.8522 12.7348 6.95756 12.4804 7.14509 12.2929C7.33263 12.1054 7.58698 12 7.8522 12ZM6.8522 17.108L7.3542 17.5C7.77871 17.8314 8.29886 18.0168 8.83725 18.0287C9.37564 18.0406 9.90347 17.8783 10.3422 17.566L12.5622 15.986C12.6469 15.9257 12.7482 15.8933 12.8522 15.8933C12.9562 15.8933 13.0575 15.9257 13.1422 15.986L15.3622 17.566C15.8007 17.8778 16.3282 18.0398 16.8661 18.0279C17.4041 18.016 17.9239 17.8309 18.3482 17.5L18.8522 17.108V20H6.8522V17.108Z" fill="#FFFEFC"/>
</svg>
