<svg width="32" height="32" viewBox="0 0 32 32" fill="none" xmlns="http://www.w3.org/2000/svg">
<g clip-path="url(#clip0_393_39)">
<path fill-rule="evenodd" clip-rule="evenodd" d="M10.896 21.1053C16.0226 26.232 20.7733 26.7933 22.168 26.8453C23.8533 26.9067 25.5733 25.5307 26.3173 24.1213C25.1306 22.7293 23.5853 21.6493 21.892 20.4787C20.8946 21.476 19.6653 23.3293 18.0253 22.6653C17.0933 22.2907 14.792 21.2307 12.7813 19.2187C10.7693 17.208 9.71065 14.9067 9.33331 13.976C8.66931 12.3347 10.528 11.1013 11.5266 10.1027C10.356 8.38268 9.29465 6.79735 7.90531 5.67068C6.47598 6.41735 5.09198 8.12401 5.15465 9.83201C5.20665 11.2267 5.76798 15.9773 10.896 21.1053ZM22.0693 29.5093C20.1493 29.4387 14.708 28.688 9.00931 22.9893C3.31198 17.292 2.56131 11.852 2.48931 9.93068C2.38265 7.00268 4.62531 4.15868 7.21598 3.04801C7.52795 2.9133 7.86958 2.86201 8.20735 2.89918C8.54513 2.93635 8.86743 3.06069 9.14265 3.26001C11.2866 4.82401 12.7653 7.19335 14.036 9.04935C14.3003 9.43528 14.4214 9.90148 14.3783 10.3673C14.3352 10.8331 14.1306 11.2691 13.8 11.6L11.992 13.4093C12.412 14.336 13.2666 15.9333 14.6666 17.3333C16.0666 18.7333 17.664 19.588 18.592 20.008L20.3986 18.2C20.7308 17.8687 21.1687 17.6644 21.636 17.6227C22.1033 17.581 22.5704 17.7046 22.956 17.972C24.8493 19.284 27.0733 20.7413 28.6946 22.8173C28.9102 23.0946 29.0472 23.4246 29.0916 23.7729C29.1359 24.1212 29.0858 24.475 28.9466 24.7973C27.8306 27.4013 25.0066 29.6173 22.0693 29.5093Z" fill="#282828"/>
</g>
<defs>
<clipPath id="clip0_393_39">
<rect width="32" height="32" fill="white"/>
</clipPath>
</defs>
</svg>
