<svg viewBox="0 0 25 24" xmlns="http://www.w3.org/2000/svg"><path d="M12.86 2c-1.07 0-1.76.71-2.13 1.3a4.03 4.03 0 0 0-.6 1.77c-.06.85.07 1.68.6 2.31.55.66 1.34.88 2.13.88.8 0 1.6-.25 2.13-.9a3.2 3.2 0 0 0 .61-2.3 4.12 4.12 0 0 0-.6-1.74C14.62 2.74 13.93 2 12.85 2Zm-.74 3.18c0-.12.1-.5.3-.81.2-.33.36-.37.44-.37.06 0 .22.04.44.38.2.33.3.7.3.82.04.56-.08.8-.15.88-.05.06-.18.18-.6.18-.44 0-.55-.12-.59-.16-.05-.06-.18-.3-.14-.92ZM20.85 20v-7a3 3 0 0 0-3-3h-10a3 3 0 0 0-3 3v7h-1a1 1 0 0 0 0 2h18a1 1 0 0 0 0-2h-1Zm-13-8h10a1 1 0 0 1 1 1v1.57l-1.73 1.35a.5.5 0 0 1-.6.02l-2.22-1.58a2.5 2.5 0 0 0-2.9 0l-2.22 1.58a.5.5 0 0 1-.6-.02l-1.73-1.35V13a1 1 0 0 1 1-1Zm-1 5.1.5.4a2.5 2.5 0 0 0 3 .07l2.21-1.58a.5.5 0 0 1 .58 0l2.22 1.58a2.5 2.5 0 0 0 2.99-.07l.5-.4V20h-12v-2.9Z"/></svg>