<svg viewBox="0 0 25 24" xmlns="http://www.w3.org/2000/svg"><path d="M5.85 21a.97.97 0 0 1-.71-.29.96.96 0 0 1-.29-.71c0-.28.1-.52.29-.71.2-.2.43-.3.71-.29h14c.29 0 .52.1.72.29.19.19.28.43.28.71 0 .28-.1.52-.29.71-.19.2-.43.3-.7.29h-14Zm3-4c-1.1 0-2.04-.4-2.82-1.18A3.85 3.85 0 0 1 4.85 13V5c0-.55.2-1.02.59-1.41.4-.4.86-.6 1.41-.59h14c.55 0 1.02.2 1.42.59.39.39.58.86.58 1.41v3c0 .55-.2 1.02-.59 1.41-.39.4-.86.6-1.4.59h-2v3c0 1.1-.4 2.04-1.18 2.82A3.85 3.85 0 0 1 14.85 17h-6Zm0-2h6c.55 0 1.02-.2 1.42-.59.39-.39.58-.86.58-1.41V5h-10v8c0 .55.2 1.02.59 1.41.4.4.86.6 1.41.59Zm10-7h2V5h-2v3Z"/></svg>