<svg viewBox="0 0 25 24" xmlns="http://www.w3.org/2000/svg"><path d="M12.03 22a1.06 1.06 0 0 1-.78-.32 1.08 1.08 0 0 1-.32-.8v-1.27a5.68 5.68 0 0 1-2.17-.97 4.95 4.95 0 0 1-1.51-1.95.95.95 0 0 1-.02-.82c.12-.28.34-.5.65-.62a.96.96 0 0 1 .8.01c.27.12.48.32.63.6.31.56.7.98 1.18 1.26.48.29 1.07.43 1.76.43a3.4 3.4 0 0 0 1.91-.51c.53-.34.79-.88.79-1.6 0-.65-.2-1.16-.6-1.54-.41-.38-1.35-.8-2.81-1.29-1.58-.5-2.66-1.1-3.25-1.8a3.8 3.8 0 0 1-.88-2.53c0-1.2.39-2.14 1.16-2.8a4.4 4.4 0 0 1 2.36-1.15V3.11A1.08 1.08 0 0 1 12.03 2a1.08 1.08 0 0 1 1.1 1.11v1.22c.7.11 1.3.34 1.82.68a4.48 4.48 0 0 1 1.26 1.27c.17.24.2.5.1.8-.1.3-.3.51-.62.64a1.04 1.04 0 0 1-.8.02 1.99 1.99 0 0 1-.77-.55 2.44 2.44 0 0 0-.84-.6c-.32-.13-.72-.2-1.2-.2-.8 0-1.41.18-1.84.54a1.7 1.7 0 0 0-.63 1.35c0 .6.28 1.09.83 1.44.55.35 1.5.72 2.86 1.11 1.26.37 2.22.96 2.87 1.77.65.8.98 1.73.98 2.79 0 1.31-.39 2.31-1.16 3a5.36 5.36 0 0 1-2.86 1.28v1.22a1.08 1.08 0 0 1-1.1 1.11Z"/></svg>