<svg stroke="#000" viewBox="0 0 28 28" xmlns="http://www.w3.org/2000/svg"><path stroke-linecap="round" stroke-linejoin="round" stroke-width="2.2" d="m7.091 10.5 5.105 3.938c.482.372 1.082.575 1.701.575s1.219-.203 1.701-.575l5.105-3.938M26.147 21V7.875a2.58 2.58 0 0 0-.797-1.856 2.774 2.774 0 0 0-1.925-.769H4.369c-.722 0-1.414.277-1.925.769a2.578 2.578 0 0 0-.797 1.856V21c0 .696.287 1.364.797 1.856s1.203.769 1.925.769h19.056c.722 0 1.414-.277 1.925-.769A2.58 2.58 0 0 0 26.147 21Z" fill="none"/></svg>