<svg fill="currentColor" viewBox="0 0 32 32" xmlns="http://www.w3.org/2000/svg"><g clip-path="url(#a)"><path fill-rule="evenodd" clip-rule="evenodd" d="M10.896 21.105c5.127 5.127 9.877 5.688 11.272 5.74 1.685.062 3.405-1.314 4.15-2.724-1.187-1.392-2.733-2.472-4.426-3.642-.997.997-2.227 2.85-3.867 2.186-.932-.374-3.233-1.434-5.244-3.446-2.012-2.011-3.07-4.312-3.448-5.243-.664-1.641 1.195-2.875 2.194-3.873-1.171-1.72-2.232-3.306-3.622-4.432-1.429.746-2.813 2.453-2.75 4.161.052 1.395.613 6.145 5.741 11.273Zm11.173 8.404c-1.92-.07-7.361-.821-13.06-6.52-5.697-5.697-6.448-11.137-6.52-13.058-.106-2.928 2.136-5.772 4.727-6.883a1.96 1.96 0 0 1 1.927.212c2.144 1.564 3.622 3.933 4.893 5.79a2.005 2.005 0 0 1-.236 2.55l-1.808 1.81c.42.926 1.275 2.523 2.675 3.923s2.997 2.255 3.925 2.675l1.807-1.808a2.005 2.005 0 0 1 2.557-.228c1.893 1.312 4.117 2.77 5.739 4.845a1.96 1.96 0 0 1 .252 1.98c-1.116 2.604-3.94 4.82-6.878 4.712Z"/></g><defs><clipPath id="a"><path d="M0 0h32v32H0z"/></clipPath></defs></svg>