<svg fill="currentColor" viewBox="0 0 32 32" xmlns="http://www.w3.org/2000/svg"><g clip-path="url(#a)"><path  fill-rule="evenodd" d="M5.333 16a10.667 10.667 0 1 1 12 10.584v-7.917H20A1.334 1.334 0 0 0 20 16h-2.667v-2.667A1.333 1.333 0 0 1 18.667 12h.666a1.333 1.333 0 1 0 0-2.667h-.666a4 4 0 0 0-4 4V16H12a1.333 1.333 0 1 0 0 2.667h2.667v7.917A10.668 10.668 0 0 1 5.333 16ZM16 29.333c7.364 0 13.333-5.969 13.333-13.333S23.364 2.667 16 2.667 2.667 8.636 2.667 16 8.636 29.333 16 29.333Z" clip-rule="evenodd"/></g><defs><clipPath id="a"><path  d="M0 0h32v32H0z"/></clipPath></defs></svg>