<svg viewBox="0 0 32 32" xmlns="http://www.w3.org/2000/svg"><path d="M10.4 2.667h11.2a7.739 7.739 0 0 1 7.733 7.733v11.2a7.733 7.733 0 0 1-7.733 7.733H10.4A7.739 7.739 0 0 1 2.667 21.6V10.4A7.733 7.733 0 0 1 10.4 2.667Zm-.267 2.666a4.8 4.8 0 0 0-4.8 4.8v11.734c0 2.653 2.147 4.8 4.8 4.8h11.734a4.8 4.8 0 0 0 4.8-4.8V10.133c0-2.653-2.147-4.8-4.8-4.8H10.133Zm12.867 2A1.666 1.666 0 0 1 24.667 9 1.667 1.667 0 1 1 23 7.333Zm-7 2a6.667 6.667 0 0 1 4.714 1.953 6.667 6.667 0 0 1 0 9.428A6.667 6.667 0 1 1 16 9.334ZM16 12a4 4 0 0 0-4 4 4 4 0 0 0 6.829 2.828A4 4 0 0 0 16 12Z"/></svg>